<?xml version="1.0" encoding="UTF-8"?>
<svg id="Camada_2" data-name="Camada 2" xmlns="http://www.w3.org/2000/svg" viewBox="0 0 73.41 92.98">
  <defs>
    <style>
      .cls-1 {
        fill: #0072ba;
      }

      .cls-2 {
        fill: #0473b9;
      }
    </style>
  </defs>
  <g id="Camada_1-2" data-name="Camada 1">
    <g>
      <path class="cls-1" d="M39.43,30.32s-9.54,7.57-9.08,15.72c.42,7.53,9.08,14.76,9.08,14.76,0,0-12.47,7.01-21.32,5.27-1.09-.21-15.3-3.2-17.77-13.71-2.14-9.14,6.4-16.31,7.9-17.57,10.86-9.12,31.19-4.47,31.19-4.47Z"/>
      <path class="cls-1" d="M11,0v21.76l28.43,1.44S33.81,2.46,22.01.35c-1.38-.25-11.01-.35-11.01-.35Z"/>
      <path class="cls-1" d="M44.19,1.76s16.21,2.04,20.93,5.3c.45.31.9.65,1.33,1.02,4.56,3.82,6.96,9.08,6.96,14.48v43.78s-16.93-3.2-18.16-3.97c-11.06-6.96-11.06-13.58-11.06-13.58V1.76Z"/>
      <path class="cls-2" d="M45.26,67.93h16.58c6.59,1.14,11.57,6.32,11.57,12.53v12.53h-17.03c-5.43-.93-9.76-4.6-11.13-9.32v-15.73Z"/>
    </g>
  </g>
</svg>