<?xml version="1.0" encoding="UTF-8"?>
<svg id="Camada_2" data-name="Camada 2" xmlns="http://www.w3.org/2000/svg" viewBox="0 0 210.06 92.99">
  <defs>
    <style>
      .cls-1 {
        fill: #0072ba;
      }

      .cls-2 {
        isolation: isolate;
      }

      .cls-3 {
        fill: #fff;
      }

      .cls-4 {
        fill: #0473b9;
      }
    </style>
  </defs>
  <g id="Camada_2-2" data-name="Camada 2">
    <g id="Camada_1-2" data-name="Camada 1-2">
      <g>
        <path class="cls-1" d="M39.43,30.32s-9.54,7.57-9.08,15.72c.42,7.53,9.08,14.76,9.08,14.76,0,0-12.47,7.01-21.32,5.27-1.09-.21-15.3-3.2-17.77-13.71-2.14-9.14,6.4-16.31,7.9-17.57,10.86-9.12,31.19-4.47,31.19-4.47Z"/>
        <path class="cls-1" d="M11,0v21.76l28.43,1.44S33.81,2.46,22.01.35c-1.38-.25-11.01-.35-11.01-.35Z"/>
        <path class="cls-1" d="M44.19,1.76s16.21,2.04,20.93,5.3c.45.31.9.65,1.33,1.02,4.56,3.82,6.96,9.08,6.96,14.48v43.78s-16.93-3.2-18.16-3.97c-11.06-6.96-11.06-13.58-11.06-13.58,0,0,0-47.03,0-47.03Z"/>
        <g class="cls-2">
          <g class="cls-2">
            <path class="cls-3" d="M104.72,46.69h-7.67v-4.24c-.61,1.43-1.66,2.57-3.17,3.43-1.5.86-3.26,1.27-5.28,1.24-1.18,0-2.26-.16-3.24-.49-.98-.33-1.82-.78-2.52-1.35-.7-.57-1.25-1.25-1.63-2.03-.38-.79-.58-1.65-.58-2.59,0-1.14.27-2.18.82-3.11.54-.93,1.28-1.73,2.21-2.4.93-.67,2.01-1.19,3.24-1.56,1.23-.37,2.53-.56,3.91-.56.99,0,1.97.11,2.95.34.98.23,2.07.67,3.29,1.33-.22-1.4-.97-2.52-2.23-3.36-1.26-.84-2.81-1.26-4.63-1.26-1.02,0-2.16.16-3.41.49-1.25.33-2.42.88-3.5,1.65v-5.87c1.73-.66,3.39-1.07,4.99-1.24,1.6-.17,2.85-.26,3.74-.26,4.09,0,7.24.83,9.43,2.51,2.19,1.67,3.29,3.89,3.29,6.66v12.68ZM93.06,37.14c-1.41,0-2.55.32-3.43.96-.88.64-1.32,1.48-1.32,2.51,0,.91.33,1.58.98,1.99.65.42,1.46.54,2.42.36,1.12-.2,2.15-.75,3.09-1.65.94-.9,1.69-2.01,2.23-3.32-.54-.26-1.18-.46-1.92-.62-.74-.16-1.42-.24-2.06-.24Z"/>
          </g>
          <g class="cls-2">
            <path class="cls-3" d="M109.09,14.57h7.68v32.12h-7.68V14.57Z"/>
          </g>
          <g class="cls-2">
            <path class="cls-3" d="M142.67,44.93c-.61.34-1.31.64-2.11.9-.8.26-1.64.49-2.52.68-.88.2-1.79.35-2.73.45-.94.1-1.88.15-2.81.15-1.89,0-3.6-.27-5.13-.81-1.54-.54-2.85-1.31-3.96-2.29-1.1-.99-1.95-2.17-2.54-3.56-.59-1.38-.89-2.9-.89-4.56s.3-3.16.89-4.52c.59-1.36,1.44-2.52,2.54-3.49,1.1-.97,2.42-1.72,3.96-2.25,1.53-.53,3.23-.79,5.08-.79s3.41.26,4.87.79c1.45.53,2.7,1.24,3.74,2.14,1.04.9,1.84,1.94,2.4,3.13.56,1.19.84,2.45.84,3.79v2.96h-16.79c.38,1.03,1.18,1.86,2.4,2.5,1.22.64,2.64.96,4.27.96,1.41,0,2.87-.24,4.39-.71,1.52-.47,2.85-1.08,4.01-1.82l.1,6.34ZM136.82,33.97c-.35-1.08-.94-1.96-1.77-2.63-.83-.67-1.76-1.01-2.78-1.01s-1.94.34-2.76,1.01-1.4,1.55-1.75,2.63h9.07Z"/>
            <path class="cls-3" d="M164.4,31.7c-.42-.26-.94-.51-1.58-.75-.64-.24-1.38-.36-2.21-.36-1.54,0-2.74.52-3.62,1.56-.88,1.04-1.32,2.35-1.32,3.92v10.62h-7.68v-21.42h7.68v3.04c.64-1.2,1.43-2.08,2.37-2.63.94-.56,2.01-.83,3.19-.83.99,0,2.08.2,3.26.6l-.1,6.25Z"/>
          </g>
          <g class="cls-2">
            <path class="cls-3" d="M183.3,46.78c-.54.09-1.22.16-2.01.24-.8.07-1.52.11-2.16.11-1.63,0-3.09-.26-4.37-.77-1.28-.51-2.35-1.24-3.21-2.18s-1.53-2.07-1.99-3.38c-.46-1.31-.7-2.77-.7-4.37v-5.14h-2.88v-6h2.88v-6.21l7.72-2.36v8.57h5.18v6h-5.18l-.05,3.68c0,1.86.38,3.35,1.15,4.48s1.85,1.69,3.26,1.69c.19,0,.54-.02,1.06-.06.51-.04.93-.11,1.25-.19l.05,5.91Z"/>
          </g>
          <g class="cls-2">
            <path class="cls-3" d="M210.06,46.69h-7.67v-4.24c-.61,1.43-1.66,2.57-3.17,3.43-1.5.86-3.26,1.27-5.28,1.24-1.18,0-2.26-.16-3.24-.49-.98-.33-1.82-.78-2.52-1.35-.7-.57-1.25-1.25-1.63-2.03-.38-.79-.58-1.65-.58-2.59,0-1.14.27-2.18.81-3.11.54-.93,1.28-1.73,2.21-2.4s2.01-1.19,3.24-1.56c1.23-.37,2.53-.56,3.91-.56.99,0,1.97.11,2.95.34.97.23,2.07.67,3.29,1.33-.22-1.4-.97-2.52-2.23-3.36-1.26-.84-2.81-1.26-4.63-1.26-1.02,0-2.16.16-3.41.49-1.25.33-2.42.88-3.5,1.65v-5.87c1.73-.66,3.39-1.07,4.99-1.24,1.6-.17,2.85-.26,3.74-.26,4.09,0,7.24.83,9.43,2.51,2.19,1.67,3.29,3.89,3.29,6.66v12.68ZM198.4,37.14c-1.41,0-2.55.32-3.43.96-.88.64-1.32,1.48-1.32,2.51,0,.91.33,1.58.98,1.99.65.42,1.46.54,2.42.36,1.12-.2,2.15-.75,3.09-1.65.94-.9,1.69-2.01,2.23-3.32-.54-.26-1.18-.46-1.92-.62-.74-.16-1.42-.24-2.06-.24Z"/>
          </g>
        </g>
        <g class="cls-2">
          <g class="cls-2">
            <path class="cls-1" d="M84.06,74.17v-19.59h7.42c1.68,0,2.95.09,3.84.28,1.23.26,2.29.73,3.16,1.4,1.14.87,1.99,1.99,2.55,3.35.56,1.36.85,2.91.85,4.66,0,1.49-.19,2.81-.57,3.96-.38,1.15-.87,2.1-1.47,2.85-.6.75-1.25,1.35-1.96,1.78-.71.43-1.57.76-2.57.98-1,.22-2.16.33-3.46.33h-7.78ZM86.91,71.86h4.6c1.42,0,2.54-.12,3.34-.36.81-.24,1.45-.58,1.93-1.02.68-.61,1.2-1.44,1.58-2.48s.57-2.3.57-3.78c0-2.05-.37-3.62-1.11-4.72-.74-1.1-1.64-1.84-2.7-2.21-.76-.27-1.99-.4-3.69-.4h-4.53v14.97Z"/>
            <path class="cls-1" d="M106.28,74.17v-19.59h2.85v19.59h-2.85Z"/>
            <path class="cls-1" d="M124.25,66.49v-2.3h9.13s0,7.26,0,7.26c-1.4,1.02-2.85,1.78-4.34,2.29-1.49.51-3.02.77-4.59.77-2.12,0-4.04-.41-5.77-1.24-1.73-.82-3.04-2.02-3.92-3.58-.88-1.56-1.32-3.3-1.32-5.23s.44-3.69,1.32-5.34,2.14-2.88,3.79-3.68c1.65-.8,3.54-1.2,5.69-1.2,1.56,0,2.97.23,4.23.69s2.25,1.1,2.96,1.92c.71.82,1.26,1.89,1.63,3.21l-2.57.64c-.32-1-.73-1.78-1.21-2.35-.48-.57-1.17-1.03-2.06-1.37-.89-.34-1.88-.51-2.97-.51-1.3,0-2.43.18-3.38.54-.95.36-1.72.83-2.3,1.42s-1.04,1.23-1.36,1.94c-.55,1.21-.82,2.53-.82,3.94,0,1.75.33,3.21.99,4.38.66,1.18,1.62,2.05,2.89,2.62,1.26.57,2.61.85,4.03.85,1.23,0,2.44-.22,3.62-.65,1.18-.43,2.07-.89,2.68-1.38v-3.65h-6.34Z"/>
            <path class="cls-1" d="M138.07,74.17v-19.59h2.85v19.59h-2.85Z"/>
          </g>
          <g class="cls-2">
            <path class="cls-1" d="M155.87,74.17v-17.28h-7.1v-2.31h17.08v2.31h-7.13v17.28h-2.85Z"/>
          </g>
          <g class="cls-2">
            <path class="cls-1" d="M164.25,74.17l8.28-19.59h3.07l8.82,19.59h-3.25l-2.51-5.93h-9.01l-2.37,5.93h-3.03ZM170.47,66.12h7.31l-2.25-5.43c-.69-1.65-1.2-3-1.53-4.06-.27,1.26-.66,2.5-1.16,3.74l-2.37,5.75Z"/>
            <path class="cls-1" d="M186.58,74.17v-19.59h2.85v17.28h10.61v2.31h-13.47Z"/>
          </g>
        </g>
        <path class="cls-4" d="M45.26,67.93h16.58c6.59,1.14,11.57,6.32,11.57,12.53v12.53h-17.03c-5.43-.93-9.76-4.6-11.13-9.32v-15.73h.01Z"/>
      </g>
    </g>
  </g>
</svg>